<?xml version="1.0" encoding="utf-8"?>
<!-- Generator: Adobe Illustrator 16.0.0, SVG Export Plug-In . SVG Version: 6.00 Build 0)  -->
<!DOCTYPE svg PUBLIC "-//W3C//DTD SVG 1.1//EN" "http://www.w3.org/Graphics/SVG/1.1/DTD/svg11.dtd">
<svg version="1.1" id="圖層_1" xmlns="http://www.w3.org/2000/svg" xmlns:xlink="http://www.w3.org/1999/xlink" x="0px" y="0px"
	 width="24px" height="24px" viewBox="0 0 24 24" enable-background="new 0 0 24 24" xml:space="preserve">
<g>
	<path fill="#FFFFFF" d="M7.965,0.018c6.082-0.003,9.875,6.503,6.898,11.833c-0.891,1.598-0.627,2.236,1.188,2.66
		c0.573,0.133,1.066,0.332,1.479,0.742c1.912,1.908,3.826,3.814,5.734,5.729c0.769,0.771,1.09,1.643,0.196,2.502
		c-0.887,0.861-1.771,0.49-2.521-0.252c-1.926-1.896-3.836-3.807-5.726-5.734c-0.3-0.313-0.528-0.736-0.657-1.146
		c-0.725-2.299-0.904-2.387-3.1-1.311c-2.95,1.445-6.421,0.961-8.786-1.232c-2.496-2.317-3.319-5.621-2.146-8.611
		C1.742,2.093,4.723,0.019,7.965,0.018z M7.904,1.154C4.213,1.182,1.159,4.25,1.137,7.955c-0.021,3.684,3.237,6.938,6.904,6.895
		c3.689-0.045,6.82-3.293,6.771-7.037C14.766,4.18,11.598,1.126,7.904,1.154z M22.229,22.865c0.182-0.094,0.377-0.133,0.447-0.248
		c0.271-0.439-0.049-0.742-0.32-1.018c-1.779-1.793-3.563-3.584-5.369-5.359c-0.299-0.295-0.691-0.764-1.125-0.266
		c-0.319,0.375,0.066,0.73,0.339,1.006c1.776,1.797,3.563,3.584,5.356,5.367C21.75,22.541,21.992,22.686,22.229,22.865z"/>
	<path fill="#FFFFFF" d="M2.318,8.038c-0.023-3.243,2.361-5.67,5.594-5.69c3.245-0.021,5.699,2.372,5.72,5.576
		c0.021,3.2-2.424,5.702-5.6,5.73C4.854,13.684,2.343,11.216,2.318,8.038z M12.512,8.025c0.018-2.6-1.988-4.666-4.533-4.67
		C5.414,3.352,3.427,5.384,3.432,8.004c0.006,2.573,1.883,4.48,4.447,4.518C10.544,12.559,12.494,10.667,12.512,8.025z"/>
</g>
</svg>
