<?xml version="1.0" encoding="utf-8"?>
<!-- Generator: Adobe Illustrator 16.0.0, SVG Export Plug-In . SVG Version: 6.00 Build 0)  -->
<!DOCTYPE svg PUBLIC "-//W3C//DTD SVG 1.1//EN" "http://www.w3.org/Graphics/SVG/1.1/DTD/svg11.dtd">
<svg version="1.1" id="圖層_1" xmlns="http://www.w3.org/2000/svg" xmlns:xlink="http://www.w3.org/1999/xlink" x="0px" y="0px"
	 width="52px" height="60px" viewBox="0 0 52 60" enable-background="new 0 0 52 60" xml:space="preserve">
<path fill="#4DCC00" d="M26,5.286c-14.244,0-25.835,9.405-25.835,20.966c0,10.364,9.191,19.043,21.606,20.686
	c0.842,0.181,1.986,0.555,2.276,1.272c0.26,0.653,0.17,1.679,0.083,2.338c0,0-0.303,1.821-0.368,2.21
	c-0.112,0.652-0.519,2.557,2.237,1.393c2.758-1.16,14.879-8.76,20.3-15c3.741-4.105,5.535-8.271,5.535-12.898
	C51.835,14.69,40.246,5.286,26,5.286z M16.884,32.423c0,0.278-0.224,0.507-0.502,0.507h-7.24c-0.135,0-0.257-0.056-0.347-0.142
	c-0.002-0.004-0.005-0.005-0.008-0.009c-0.002-0.002-0.004-0.004-0.006-0.008c-0.087-0.088-0.141-0.211-0.141-0.349v-0.001V21.169
	c0-0.277,0.225-0.503,0.504-0.503h1.813c0.278,0,0.502,0.226,0.502,0.503v8.939h4.925c0.277,0,0.501,0.226,0.5,0.503V32.423z
	 M21.254,32.426c0,0.277-0.225,0.502-0.504,0.502h-1.811c-0.278,0-0.504-0.225-0.504-0.502V21.167c0-0.277,0.226-0.502,0.504-0.502
	h1.811c0.279,0,0.504,0.225,0.504,0.502V32.426z M33.729,32.426c0,0.278-0.225,0.504-0.504,0.504h-1.813
	c-0.044,0-0.087-0.008-0.129-0.019c-0.002-0.001-0.006-0.001-0.008-0.001c-0.012-0.006-0.021-0.01-0.034-0.014
	c-0.005,0-0.009-0.004-0.015-0.004c-0.011-0.004-0.018-0.008-0.023-0.013c-0.01-0.002-0.018-0.007-0.025-0.011
	c-0.005-0.004-0.009-0.005-0.014-0.008c-0.012-0.006-0.021-0.014-0.031-0.021c-0.001-0.001-0.003-0.004-0.005-0.004
	c-0.048-0.032-0.091-0.073-0.127-0.124l-5.166-6.977v6.688c0,0.278-0.226,0.503-0.504,0.503H23.52c-0.278,0-0.504-0.225-0.504-0.503
	V21.168c0-0.276,0.228-0.501,0.504-0.501h1.812c0.006,0,0.011,0,0.019,0c0.008,0,0.016,0,0.023,0.001
	c0.011,0.001,0.019,0.002,0.028,0.004c0.006,0,0.013,0.001,0.021,0.001c0.01,0.002,0.018,0.004,0.028,0.006
	c0.005,0.002,0.012,0.004,0.019,0.005c0.011,0.002,0.02,0.005,0.029,0.01c0.005,0.002,0.01,0.004,0.017,0.006
	c0.011,0.003,0.019,0.008,0.029,0.013c0.005,0.001,0.009,0.005,0.016,0.006c0.007,0.005,0.017,0.01,0.027,0.016
	c0.003,0.003,0.009,0.005,0.014,0.009c0.008,0.004,0.016,0.012,0.026,0.017c0.005,0.003,0.01,0.006,0.013,0.01
	c0.009,0.008,0.018,0.015,0.027,0.023c0.003,0.002,0.007,0.005,0.01,0.007c0.012,0.01,0.021,0.02,0.031,0.032l0.002,0.003
	c0.015,0.016,0.027,0.033,0.04,0.051l5.158,6.967v-6.688c0-0.277,0.227-0.502,0.505-0.502h1.813c0.279,0,0.504,0.225,0.504,0.502
	v11.26H33.729z M43.734,22.981c0,0.279-0.226,0.503-0.502,0.503h-4.924v1.903h4.924c0.276,0,0.502,0.226,0.502,0.503v1.813
	c0,0.278-0.226,0.503-0.502,0.503h-4.924v1.903h4.924c0.276,0,0.502,0.227,0.502,0.504v1.812c0,0.277-0.226,0.505-0.502,0.505
	h-7.239h-0.001c-0.135,0-0.258-0.055-0.348-0.141c-0.002-0.002-0.006-0.005-0.006-0.009c-0.004-0.001-0.007-0.005-0.01-0.007
	c-0.086-0.09-0.139-0.213-0.139-0.35V21.169c0-0.135,0.053-0.256,0.137-0.347c0.005-0.003,0.008-0.006,0.012-0.009
	c0-0.002,0.004-0.003,0.004-0.005c0.09-0.088,0.213-0.143,0.35-0.143h0.001h7.239c0.276,0,0.502,0.226,0.502,0.504V22.981z"/>
</svg>
