<?xml version="1.0" encoding="utf-8"?>
<!-- Generator: Adobe Illustrator 16.0.0, SVG Export Plug-In . SVG Version: 6.00 Build 0)  -->
<!DOCTYPE svg PUBLIC "-//W3C//DTD SVG 1.1//EN" "http://www.w3.org/Graphics/SVG/1.1/DTD/svg11.dtd">
<svg version="1.1" id="圖層_1" xmlns="http://www.w3.org/2000/svg" xmlns:xlink="http://www.w3.org/1999/xlink" x="0px" y="0px"
	 width="24px" height="24px" viewBox="0 0 24 24" enable-background="new 0 0 24 24" xml:space="preserve">
<g>
	<path fill="#CCCCCC" d="M21.818,23.604c-0.476,0-0.936-0.194-1.256-0.529l-4.783-4.77c-1.633,1.129-3.584,1.729-5.564,1.729
		c-5.425,0-9.818-4.393-9.818-9.818c0-5.425,4.394-9.818,9.818-9.818s9.818,4.393,9.818,9.818c0,1.98-0.6,3.934-1.729,5.564
		l4.783,4.783c0.32,0.32,0.516,0.78,0.516,1.256C23.604,22.795,22.795,23.604,21.818,23.604z M10.215,3.967
		c-3.444,0-6.248,2.803-6.248,6.248c0,3.445,2.804,6.248,6.248,6.248c3.444,0,6.248-2.803,6.248-6.248
		C16.463,6.77,13.659,3.967,10.215,3.967z"/>
</g>
</svg>
