<?xml version="1.0" encoding="utf-8"?>
<!-- Generator: Adobe Illustrator 16.0.0, SVG Export Plug-In . SVG Version: 6.00 Build 0)  -->
<!DOCTYPE svg PUBLIC "-//W3C//DTD SVG 1.1//EN" "http://www.w3.org/Graphics/SVG/1.1/DTD/svg11.dtd">
<svg version="1.1" id="圖層_1" xmlns="http://www.w3.org/2000/svg" xmlns:xlink="http://www.w3.org/1999/xlink" x="0px" y="0px"
	 width="24px" height="24px" viewBox="0 0 24 24" enable-background="new 0 0 24 24" xml:space="preserve">
<g>
	<path fill="#CCCCCC" d="M7.965,0.018c6.082-0.003,9.875,6.503,6.898,11.833c-0.891,1.598-0.627,2.236,1.188,2.66
		c0.573,0.134,1.066,0.332,1.479,0.742c1.911,1.908,3.825,3.813,5.733,5.729c0.77,0.771,1.09,1.643,0.193,2.502
		c-0.889,0.857-1.771,0.49-2.521-0.252c-1.927-1.896-3.836-3.811-5.728-5.734c-0.3-0.313-0.526-0.736-0.655-1.146
		c-0.727-2.299-0.904-2.387-3.102-1.311c-2.95,1.445-6.421,0.961-8.786-1.232C0.171,11.494-0.652,8.188,0.521,5.2
		C1.742,2.093,4.723,0.019,7.965,0.018z M7.904,1.154C4.213,1.182,1.159,4.25,1.136,7.955c-0.021,3.684,3.238,6.938,6.905,6.895
		c3.689-0.045,6.82-3.292,6.771-7.037C14.766,4.18,11.598,1.126,7.904,1.154z M22.229,22.865c0.186-0.094,0.377-0.133,0.447-0.248
		c0.271-0.439-0.049-0.742-0.32-1.018c-1.775-1.793-3.563-3.584-5.369-5.359c-0.299-0.295-0.688-0.764-1.125-0.266
		c-0.315,0.375,0.066,0.729,0.343,1.006c1.772,1.797,3.563,3.584,5.354,5.367C21.75,22.541,21.992,22.686,22.229,22.865z"/>
	<path fill="#CCCCCC" d="M2.318,8.038c-0.023-3.243,2.361-5.67,5.594-5.69c3.245-0.021,5.699,2.373,5.72,5.576
		c0.021,3.2-2.424,5.702-5.6,5.73C4.854,13.684,2.343,11.216,2.318,8.038z M12.512,8.025c0.021-2.6-1.988-4.666-4.533-4.67
		C5.414,3.352,3.427,5.384,3.432,8.004c0.006,2.573,1.883,4.48,4.447,4.518C10.544,12.559,12.494,10.667,12.512,8.025z"/>
</g>
</svg>
